Coordinates
version=1
nRows=6
nColumns=34
inDegrees=yes

Units are S.I. units (second, meters, Newtons, ...)
If the header above contains a line with 'inDegrees', this indicates whether rotational values are in degrees (yes) or radians (no).

endheader
time	pelvis_tilt	pelvis_list	pelvis_rotation	pelvis_tx	pelvis_ty	pelvis_tz	hip_flexion_r	hip_adduction_r	hip_rotation_r	knee_angle_r	ankle_angle_r	subtalar_angle_r	mtp_angle_r	hip_flexion_l	hip_adduction_l	hip_rotation_l	knee_angle_l	ankle_angle_l	subtalar_angle_l	mtp_angle_l	lumbar_extension	lumbar_bending	lumbar_rotation	arm_flex_r	arm_add_r	arm_rot_r	elbow_flex_r	pro_sup_r	arm_flex_l	arm_add_l	arm_rot_l	elbow_flex_l	pro_sup_l
      0.00000000	     -8.66093822	     -0.30144407	     -2.47395358	      0.18289336	      0.87730529	     -0.09202561	      6.83137151	     -4.97479563	     -2.18448930	      2.90704065	     -4.15020888	     -4.44805494	      0.00000000	      5.05464493	     -4.97672521	     -6.00850386	      1.56776848	      2.74555038	      1.48676585	      0.00000000	     -5.62753516	      2.43245955	      0.01706235	     41.09907197	     14.16556028	     47.52698816	    129.26112841	    119.03200732	     49.96600120	     17.95708867	     58.01338994	    134.95425261	     95.81708452
      0.01666670	    -11.01150378	     -0.64275730	     -2.53167261	      0.18421494	      0.87489969	     -0.09483176	      8.97311794	     -4.81460910	     -2.13289756	      2.82908082	     -1.28948589	      0.58455216	      0.00000000	      7.19577273	     -5.06200987	     -5.58005383	      0.76939279	      2.70622715	      3.55640152	      0.00000000	     -2.81737980	      2.95161817	     -1.06510082	     41.86429963	     15.47215166	     47.69321859	    130.19565393	    117.56305912	     53.12851354	     18.87085463	     57.13415835	    134.50693258	     99.47823013
      0.03333330	    -11.37379970	     -0.24078499	     -2.58424831	      0.18671944	      0.87548671	     -0.09617549	      8.92298076	     -5.28842381	     -1.80436653	      1.97346419	     -1.01941779	      0.45731292	      0.00000000	      7.20857970	     -4.55093453	     -5.72263180	      0.08300369	      2.41690598	      3.67269923	      0.00000000	     -2.47265947	      2.27587156	     -0.93103088	     40.21295444	     16.29946582	     48.80994967	    130.99734515	    117.50908981	     53.20768453	     19.46231037	     57.08608378	    134.79571834	     99.66538965
      0.05000000	    -11.91042427	      0.04844914	     -2.46062251	      0.18574597	      0.87465551	     -0.09910001	      9.22798693	     -5.72010373	     -1.82366583	      1.47756133	     -1.14832226	      0.41233599	      0.00000000	      7.78849038	     -4.11550565	     -5.95778491	      0.00000000	      2.26653449	      3.62920695	      0.00000000	     -2.00902579	      1.67992486	     -0.59947057	     38.75413564	     16.28644443	     50.57349247	    132.23831252	    117.28239879	     52.82393193	     20.26916438	     58.04882851	    134.58616704	    100.06461896
      0.06666670	    -11.95348818	      0.26358203	     -2.39326588	      0.18482018	      0.87657188	     -0.10182077	      9.03272820	     -6.09925703	     -1.74872068	      1.02131648	     -1.05552741	      0.38328603	      0.00000000	      7.86212798	     -3.68003937	     -5.77477430	      0.00000000	      2.60002302	      3.64843412	      0.00000000	     -2.08456812	      1.50673069	     -0.38396258	     37.27463093	     16.25282523	     51.32495451	    132.11337101	    117.20550897	     52.22935312	     20.72044320	     58.43320028	    134.35117499	    100.11732371
      0.08333330	    -12.34598870	      0.28145723	     -2.32067082	      0.18350988	      0.87720244	     -0.10502516	      9.43344589	     -6.22782237	     -1.78436364	      0.65499084	     -1.79891387	      0.10887508	      0.00000000	      8.38001234	     -3.48406148	     -5.86055482	      0.00000000	      2.63923695	      3.73798665	      0.00000000	     -1.74248326	      1.43357751	      0.12693366	     36.25614218	     15.54418069	     51.70027578	    132.43204211	    116.49843329	     51.19279574	     21.29466871	     59.52155145	    133.33114271	    100.07666171
